<?xml version="1.0" ?><!DOCTYPE svg  PUBLIC '-//W3C//DTD SVG 1.1//EN'  'http://www.w3.org/Graphics/SVG/1.1/DTD/svg11.dtd'><svg enable-background="new 0 0 402 402" id="Layer_1" version="1.1" viewBox="0 0 402 402" xml:space="preserve" xmlns="http://www.w3.org/2000/svg" xmlns:xlink="http://www.w3.org/1999/xlink"><g><g><path d="M201,1C90.5,1,1,90.5,1,201c0,8.2,0.5,16.2,1.5,24.2c7.8-5.8,16.1-10.8,25.5-12.4c2.6-0.4,5.3-0.6,7.8-1.1    c6.7-1.4,12.6-5.2,18.4-9c8.4-5.5,16.8-11.1,23.9-18.1c2.3-2.2,4.8-4.8,7.9-4.9c2.3-0.1,4.5,1.2,6.7,1.8c6.5,1.7,13.3-2.6,17.2-8    c4-5.5,6-12.1,9.3-17.9c4-7,9.6-12.9,15.3-18.7c3.6-3.7,7.2-7.4,10.8-11.1c11.2-11.5,22.4-23.1,33.8-34.4    c10.3-10.3,23.1-21.2,37.6-19c10.4,1.6,18.3,9.7,25.5,17.3c7.1,7.6,14.2,15.1,21.3,22.7c8.7-1.7,18.3,3.8,21.1,12.2    c10.8-2.7,22.3,1.6,31,8.5c8.6,7,14.9,16.4,21,25.7c9.5-3.9,19.2,3.8,27.7,9.7c10.8,7.5,23,12.3,35.8,15.2    C391.4,81.3,305.6,1,201,1z" fill="#379FD4"/><path d="M400.2,183.6c-12.8-2.9-25.1-7.8-35.8-15.2c-8.4-5.8-18.2-13.6-27.7-9.7c-6.1-9.3-12.4-18.7-21-25.7    c-8.6-7-20.2-11.3-31-8.5c-2.9-8.4-12.4-13.9-21.1-12.2c-7.1-7.6-14.2-15.1-21.3-22.7c-7.2-7.6-15.2-15.7-25.5-17.3    c-14.4-2.2-27.2,8.7-37.6,19c-11.4,11.3-22.6,22.9-33.8,34.4c-3.6,3.7-7.2,7.4-10.8,11.1c-5.6,5.8-11.3,11.7-15.3,18.7    c-3.3,5.9-5.3,12.5-9.3,17.9c-4,5.5-10.7,9.8-17.2,8c-2.3-0.6-4.4-1.9-6.7-1.8c-3.2,0.1-5.7,2.7-7.9,4.9    c-7.1,7.1-15.5,12.6-23.9,18.1c-5.7,3.8-11.6,7.6-18.4,9c-2.6,0.5-5.2,0.7-7.8,1.1c-9.5,1.5-17.8,6.5-25.5,12.4    c1.7,13.9,4.8,27.3,9.1,40.2c12.6-2.3,25-6,37.4-9.8c3.9-1.2,7.9-2.4,11.1-5c3.4-2.7,5.5-6.7,8.5-9.7c3-3.1,7.9-5.2,11.7-3.1    c1.5,0.8,2.7,2.3,4.3,2.9c2.3,0.9,4.8-0.1,7.2-0.5c9.2-1.5,17.9,5.8,27.2,5.2c8.2-0.5,14.8-7.1,22.7-9.5    c11.8-3.6,24.5,2.4,36.7,0.7c13.1-1.9,24.6-12.6,37.7-11.2c13.7,1.5,25.9,15.8,38.7,10.7c10,5,20.9,7.9,31.7,10.8    c2.3,0.6,4.6,1.2,7,1.8c10.7,2.8,21.3,5.6,32,8.5c4.7-2.2,9.3-4.4,14-6.6c5.5-2.6,11.2-5.3,15.5-9.7c3.6-3.7,6.1-8.4,9.8-12    c3.7-3.6,9.3-6.1,14-4c4.7,2.2,6.5,8.1,10.9,10.9c2.4,1.5,5.2,1.9,8,2.5c2.3-12.1,3.5-24.5,3.5-37.2    C401,195.1,400.7,189.3,400.2,183.6z" fill="#C8CEE6"/><path d="M121.9,167.5c3.3-12.4,13.2-21.7,22.6-30.4c4.6-4.2,9.2-8.5,13.8-12.7c11.4-10.5,22.9-21.1,34.3-31.6    c6.2-5.7,13.5-11.9,22-11.2c9.3,0.7,15.9,9.4,19.5,18c-2.9-1.3-6.3-1.5-9.4-0.7c6.2,3,8,10.9,10.2,17.4    c3.4,9.7,9.3,18.4,15.1,26.9c-15.4-5.7-25.8-19.8-35.3-33.1c-1.1,4.8-1.1,9.9,0,14.7c-1.9-3.3-7.2-3-10-0.4    c-2.8,2.6-3.8,6.6-4.7,10.3c-5.5,23.2-11.6,46.7-24.6,66.8c-4.7-10.4,1.1-22.1,5.2-32.8c3.2-8.4,5.4-17.2,6.5-26.1    c-5.6,8.2-12.6,15.4-20.7,21.2c0.8-4.9-3.8-10.9-8.4-9c-2.4,1-3.6,3.5-4.9,5.8c-4.1,7.6-10,14.2-17.2,19    c-1.2-7.2,0.8-14.9,5.3-20.6c-9.8,6.9-14.7,18.7-22.5,27.8c-6.7,7.9-15.6,13.9-25.4,17.1c12.3-7.9,21.9-19.9,26.9-33.7" fill="#FFFFFF"/><path d="M80.7,193.5c-9.8,3.6-16.9,12.1-25.7,17.6c-3.3,2-6.7,3.7-10.2,5.3c-6.7,3.1-13.5,6.3-20.2,9.4    c-3.3,1.5-6.3,4.9-6.6,8.4c3.3,0.1,6.5,0.1,9.8,0.2c-0.4,4.1-2.6,8-5.9,10.3c4.6,1.6,9.7,0.6,14.2-1.5c4.4-2.1,8.3-5.1,12.5-7.6    c9.9-5.9,21.9-9,29.5-17.7c-4.7,1.3-9.3,3-13.8,5c-1.4-5.3,3.6-9.9,7.3-13.9c4-4.4,6.9-9.8,8.4-15.5" fill="#FFFFFF"/><path d="M292.2,133c6.5,3.5,13.7,7.8,15.8,14.9c0.6,2.1,0.8,4.4,1.6,6.5c1.5,4.1,5.1,6.9,8.5,9.5    c2,1.6,4.1,3.2,6.6,3.9c2.8,0.9,6.3,0.8,8,3.2c1,1.3,1.1,3.1,2,4.4c2.8,4.5,9.6,1.8,14.9,1.9c8.1,0.1,13.9,7.5,19.6,13.3    c6.9,6.9,15.3,12.2,23.5,17.3c-16.3-6.8-33.8-10.2-51.1-13.6c-0.4,2.1-0.7,4.3-1.1,6.4c-10.1-3.8-20.3-7.7-30.4-11.5    c4.1,16.8,6.2,34.1,6.3,51.4c-1.9,1.3-4.2-1-5.4-3c-6.2-10.4-12.4-20.7-18.6-31.1c-10.1,4.1-21,6.3-31.9,6.3    c-2.9-7.7,0.3-16.3,4-23.7c3.8-7.4,8.3-14.9,8.1-23.1c5.6,0.6,11.4-1.1,15.9-4.5c1.6,3.8,3.2,7.6,4.7,11.4c0.4,1,0.9,2,1.9,2.4    c1.4,0.5,2.9-0.8,3.6-2.1c2.7-5.3-0.5-11.7-4.6-16.1c-4.1-4.4-9.2-8.2-11.1-13.8c-1-2.9-1.2-6.3-3.5-8.4c-2.6-2.4-7.9-3.5-6.9-6.9    c6.8-1.5,14.3,0.3,19.6,4.8" fill="#FFFFFF"/><path d="M221.9,133c7.3,10.9,17.3,20,28.8,26.3c-3.5,3.9-7.2,9-5.5,14c0.7,2.2,2.4,3.9,3.5,5.9    c3.2,6.2-0.1,13.9,1.9,20.5c1.1,3.6,3.6,6.6,5.3,9.9c3.1,6.1,3.6,13.4,7.1,19.3c-7.7-3.9-11.1-12.7-14.4-20.7    c-5.4-13.1-12-25.7-18.6-38.2c0.2,14,0.3,27.9,0.5,41.9c0,1.6-0.1,3.5-1.5,4.3c-6.3-4.6-10.6-11.9-11.4-19.7    c-3.4-0.9-6.8,1.8-8.6,4.8c-1.8,3-2.7,6.5-4.9,9.3c-3.6,4.5-9.7,6-15.1,7.9c-5.8,2.1-11.2,5-16.1,8.6c11.4-21.1,25.8-41,32.7-64    c3.3-10.9,5.1-22.8,12.6-31.2" fill="#FFFFFF"/><path d="M168.9,171.8c-3.4,9.6-5.6,19.6-6.7,29.7c-0.6,5.7-1,11.9-4.7,16.4c-5.4,6.5-15.6,6.5-22,12    c-2.5,2.1-4.7,5.3-8,5.3c-1.7,0-3.2-0.9-4.8-1.3c-7.3-2.1-15.7,4.4-22.5,0.8c-1.8-0.9-3.4-2.6-5.4-2.8c-2-0.2-4.3,0.9-5.8-0.4    c-2-1.8,0.4-4.9,2.7-6.2c2.3-1.3,5.2-3.5,4.1-5.9c-0.2-0.5-0.7-1-0.8-1.5c-0.3-1.4,1.2-2.4,2.5-3c7-3.3,13.2-8.2,17.9-14.3    c1-1.3,2-2.6,3.5-3.2c1.6-0.6,3.4,0,5.1,0.2c5,0.6,9.6-2.2,13.9-4.9c4.7-3,9.5-6,13.6-9.8c4.4-4,8.4-9,14.1-10.9" fill="#FFFFFF"/><path d="M84.8,281.4c10.3,3.3,20.6,6.5,31,9.8c5.8,1.8,12.1,3.7,18,1.8c4.2-1.3,7.5-4.4,11-7.2    c13.6-11.1,29.8-18.4,45.8-25.5c12.9-5.7,28.3-11.4,40.5-4.2c5.1,3,8.7,7.9,13.3,11.6c12.6,10.3,30.2,10.7,46.2,13.4    c21,3.6,40.9,11.9,60.6,20.1c6.1,2.6,12.2,5.1,18.4,7.7c13.6-21.2,23.3-45.1,28.1-70.7c-2.8-0.5-5.6-1-8-2.5    c-4.4-2.8-6.2-8.7-10.9-10.9c-4.7-2.2-10.3,0.3-14,4c-3.7,3.6-6.1,8.3-9.8,12c-4.3,4.4-9.9,7.1-15.5,9.7c-4.7,2.2-9.3,4.4-14,6.6    c-10.7-2.8-21.3-5.6-32-8.5c-2.3-0.6-4.6-1.2-7-1.8c-10.8-2.9-21.7-5.8-31.7-10.8c-12.8,5.1-25-9.2-38.7-10.7    c-13.2-1.4-24.6,9.3-37.7,11.2c-12.2,1.7-24.9-4.3-36.7-0.7c-7.9,2.4-14.5,8.9-22.7,9.5c-9.3,0.6-18-6.7-27.2-5.2    c-2.4,0.4-4.9,1.4-7.2,0.5c-1.6-0.6-2.8-2-4.3-2.9c-3.8-2.1-8.6,0.1-11.7,3.1c-3,3.1-5.2,7-8.5,9.7c-3.2,2.6-7.2,3.8-11.1,5    c-12.3,3.7-24.7,7.5-37.4,9.8c1.6,4.7,3.3,9.3,5.3,13.8c8.2-4.5,18-6.5,27.5-6.3C58.2,273.1,71.6,277.3,84.8,281.4z" fill="#2796DE"/><path d="M369.4,308.9c-6.1-2.6-12.2-5.1-18.4-7.7c-19.7-8.2-39.5-16.5-60.6-20.1c-16-2.7-33.6-3.1-46.2-13.4    c-4.6-3.7-8.2-8.6-13.3-11.6c-12.1-7.2-27.6-1.6-40.5,4.2c-16,7.1-32.2,14.4-45.8,25.5c-3.4,2.8-6.8,5.9-11,7.2    c-5.8,1.9-12.1,0-18-1.8c-10.3-3.3-20.6-6.5-31-9.8c-13.2-4.2-26.6-8.3-40.4-8.6c-9.5-0.2-19.3,1.7-27.5,6.3    c7.5,17.8,17.6,34.2,29.7,48.9c41.8-8.2,129.9-13.6,278,30.3C342.1,344.5,357.3,327.8,369.4,308.9z" fill="#196DAD"/><g><path d="M81.7,328.3v-83.9c-0.1,1.7-1.2,3.3-2.2,4.7c-1,1.4-2,2.8-2.5,4.5c-0.5,1.6-0.2,3.6,1.1,4.7     c0.6,0.5,1.4,1.1,1,1.7c-0.1,0.2-0.4,0.3-0.6,0.4c-2.6,1.1-5.4,2.7-6,5.5c-0.4,1.9,0.6,4.6,2,5.9c-2.5,0.9-4.7,2.5-6.5,4.5     c-0.3,0.4-0.6,0.8-0.8,1.3c-0.5,2,2.4,3.5,2.2,5.6c-0.2,1.9-2.7,2.5-3.9,4c-1.7,1.9-0.8,5,0.8,6.9c0.2,0.3,0.5,0.6,0.4,1     c0,0.3-0.3,0.5-0.5,0.7c-1,0.8-2.2,1.5-3.2,2.3c-1,0.9-1.8,2.1-1.6,3.4c0.3,1.8,2.4,3.2,1.9,5c-0.2,0.7-0.8,1.2-1.3,1.7     c-1.9,1.5-4.2,3-4.4,5.4c-0.1,2.2,1.7,4.3,1.1,6.3c-0.5,1.8-2.6,2.6-3.5,4.2c-0.8,1.4-0.7,2.9-0.1,4.4H81.7z" fill="#D8E9FD"/><path d="M108.1,328.3c0.6-1.5,0.7-3-0.1-4.4c-0.9-1.6-3-2.4-3.5-4.2c-0.6-2.1,1.2-4.2,1.1-6.3     c-0.2-2.4-2.5-3.9-4.4-5.4c-0.6-0.5-1.1-1-1.3-1.7c-0.5-1.8,1.6-3.2,1.9-5c0.2-1.3-0.6-2.6-1.6-3.4c-1-0.9-2.2-1.5-3.2-2.3     c-0.2-0.2-0.4-0.4-0.5-0.7c-0.1-0.4,0.2-0.7,0.4-1c1.6-2,2.5-5,0.8-6.9c-1.3-1.5-3.8-2.1-3.9-4c-0.2-2,2.7-3.6,2.2-5.6     c-0.1-0.5-0.4-0.9-0.8-1.3c-1.7-2-4-3.5-6.5-4.5c1.4-1.4,2.4-4,2-5.9c-0.6-2.8-3.4-4.4-6-5.5c-0.2-0.1-0.5-0.2-0.6-0.4     c-0.4-0.6,0.4-1.3,1-1.7c1.3-1.1,1.6-3.1,1.1-4.7c-0.5-1.6-1.5-3-2.5-4.5c-1-1.4-2.1-3-2.2-4.7v83.9H108.1z" fill="#F1F8FE"/></g><g><path d="M276.4,359.1V217.7c-0.1,2.9-2,5.5-3.5,7.9c-1.6,2.4-3.3,4.7-4.1,7.5c-0.8,2.8-0.4,6.1,1.8,7.9     c0.9,0.8,2.3,1.9,1.6,2.9c-0.2,0.3-0.6,0.5-1,0.7c-4.2,1.8-8.8,4.6-9.8,9.2c-0.7,3.2,1,7.7,3.2,10c-4,1.5-7.7,4.1-10.5,7.5     c-0.5,0.6-1,1.3-1.2,2.1c-0.8,3.4,3.9,5.9,3.6,9.4c-0.3,3.2-4.4,4.2-6.4,6.7c-2.7,3.2-1.2,8.4,1.4,11.7c0.4,0.5,0.8,1,0.7,1.7     c-0.1,0.5-0.4,0.8-0.8,1.2c-1.6,1.4-3.6,2.5-5.2,3.9c-1.6,1.5-2.9,3.6-2.5,5.8c0.5,3,3.8,5.4,3.1,8.3c-0.3,1.2-1.2,2.1-2.1,2.9     c-3,2.5-6.8,5.1-7.1,9.1c-0.2,3.7,2.8,7.2,1.7,10.7c-0.9,2.9-4.1,4.4-5.7,7c-1.3,2.3-1.1,4.9-0.2,7.4H276.4z" fill="#D8E9FD"/><path d="M319.3,359.1c0.9-2.5,1.1-5.1-0.2-7.4c-1.5-2.6-4.8-4.1-5.7-7c-1-3.5,2-7,1.7-10.7     c-0.3-4-4.1-6.5-7.1-9.1c-0.9-0.8-1.8-1.7-2.1-2.9c-0.7-3,2.6-5.3,3.1-8.3c0.3-2.2-0.9-4.3-2.5-5.8c-1.6-1.5-3.5-2.5-5.2-3.9     c-0.4-0.3-0.7-0.7-0.8-1.2c-0.1-0.6,0.3-1.2,0.7-1.7c2.6-3.3,4.1-8.4,1.4-11.7c-2-2.5-6.1-3.5-6.4-6.7c-0.3-3.5,4.4-6,3.6-9.4     c-0.2-0.8-0.7-1.5-1.2-2.1c-2.8-3.4-6.5-6-10.5-7.5c2.2-2.3,3.9-6.8,3.2-10c-1-4.6-5.6-7.4-9.8-9.2c-0.4-0.2-0.7-0.3-1-0.7     c-0.7-1,0.7-2.1,1.6-2.9c2.2-1.8,2.6-5.2,1.8-7.9c-0.8-2.8-2.5-5.1-4.1-7.5c-1.6-2.4-3.4-5-3.5-7.9v141.4H319.3z" fill="#F1F8FE"/></g><g><path d="M116.7,328.3v-69.9c-0.1,1.4-1,2.7-1.8,3.9c-0.8,1.2-1.7,2.3-2.1,3.7c-0.4,1.4-0.2,3,0.9,3.9     c0.5,0.4,1.2,0.9,0.8,1.4c-0.1,0.2-0.3,0.3-0.5,0.3c-2.2,0.9-4.5,2.3-5,4.6c-0.3,1.6,0.5,3.8,1.7,4.9c-2.1,0.8-4,2-5.4,3.7     c-0.3,0.3-0.5,0.6-0.6,1c-0.4,1.7,2,2.9,1.8,4.6c-0.1,1.6-2.2,2.1-3.3,3.3c-1.4,1.6-0.6,4.1,0.7,5.8c0.2,0.2,0.4,0.5,0.4,0.8     c0,0.2-0.2,0.4-0.4,0.6c-0.8,0.7-1.8,1.2-2.6,1.9c-0.8,0.7-1.5,1.8-1.3,2.9c0.2,1.5,2,2.7,1.6,4.1c-0.2,0.6-0.6,1-1.1,1.4     c-1.5,1.2-3.5,2.5-3.6,4.5c-0.1,1.8,1.4,3.6,0.9,5.3c-0.4,1.5-2.1,2.2-2.9,3.5c-0.7,1.1-0.6,2.4-0.1,3.7H116.7z" fill="#D8E9FD"/><path d="M138.7,328.3c0.5-1.2,0.6-2.5-0.1-3.7c-0.8-1.3-2.5-2-2.9-3.5c-0.5-1.7,1-3.5,0.9-5.3     c-0.1-2-2.1-3.2-3.6-4.5c-0.5-0.4-0.9-0.8-1.1-1.4c-0.4-1.5,1.3-2.6,1.6-4.1c0.2-1.1-0.5-2.1-1.3-2.9c-0.8-0.7-1.8-1.2-2.6-1.9     c-0.2-0.2-0.4-0.3-0.4-0.6c0-0.3,0.2-0.6,0.4-0.8c1.3-1.6,2.1-4.2,0.7-5.8c-1-1.2-3.1-1.7-3.3-3.3c-0.1-1.7,2.3-3,1.8-4.6     c-0.1-0.4-0.4-0.7-0.6-1c-1.5-1.7-3.3-3-5.4-3.7c1.1-1.1,2-3.4,1.7-4.9c-0.5-2.3-2.9-3.6-5-4.6c-0.2-0.1-0.4-0.2-0.5-0.3     c-0.3-0.5,0.4-1.1,0.8-1.4c1.1-0.9,1.3-2.6,0.9-3.9c-0.4-1.4-1.3-2.5-2.1-3.7c-0.8-1.2-1.7-2.5-1.8-3.9v69.9H138.7z" fill="#F1F8FE"/></g><g><path d="M226.4,340.4v-69.9c-0.1,1.4-1,2.7-1.8,3.9c-0.8,1.2-1.7,2.3-2.1,3.7c-0.4,1.4-0.2,3,0.9,3.9     c0.5,0.4,1.2,0.9,0.8,1.4c-0.1,0.2-0.3,0.3-0.5,0.3c-2.2,0.9-4.5,2.3-5,4.6c-0.3,1.6,0.5,3.8,1.7,4.9c-2.1,0.8-4,2-5.4,3.7     c-0.3,0.3-0.5,0.6-0.6,1c-0.4,1.7,2,2.9,1.8,4.6c-0.1,1.6-2.2,2.1-3.3,3.3c-1.4,1.6-0.6,4.1,0.7,5.8c0.2,0.2,0.4,0.5,0.4,0.8     c0,0.2-0.2,0.4-0.4,0.6c-0.8,0.7-1.8,1.2-2.6,1.9c-0.8,0.7-1.5,1.8-1.3,2.9c0.2,1.5,2,2.7,1.6,4.1c-0.2,0.6-0.6,1-1.1,1.4     c-1.5,1.2-3.5,2.5-3.6,4.5c-0.1,1.8,1.4,3.6,0.9,5.3c-0.4,1.5-2.1,2.2-2.9,3.5c-0.7,1.1-0.6,2.4-0.1,3.7H226.4z" fill="#D8E9FD"/><path d="M248.4,340.4c0.5-1.2,0.6-2.5-0.1-3.7c-0.8-1.3-2.5-2-2.9-3.5c-0.5-1.7,1-3.5,0.9-5.3     c-0.1-2-2.1-3.2-3.6-4.5c-0.5-0.4-0.9-0.8-1.1-1.4c-0.4-1.5,1.3-2.6,1.6-4.1c0.2-1.1-0.5-2.1-1.3-2.9c-0.8-0.7-1.8-1.2-2.6-1.9     c-0.2-0.2-0.4-0.3-0.4-0.6c0-0.3,0.2-0.6,0.4-0.8c1.3-1.6,2.1-4.2,0.7-5.8c-1-1.2-3.1-1.7-3.3-3.3c-0.1-1.7,2.3-3,1.8-4.6     c-0.1-0.4-0.4-0.7-0.6-1c-1.5-1.7-3.3-3-5.4-3.7c1.1-1.1,2-3.4,1.7-4.9c-0.5-2.3-2.9-3.6-5-4.6c-0.2-0.1-0.4-0.2-0.5-0.3     c-0.3-0.5,0.4-1.1,0.8-1.4c1.1-0.9,1.3-2.6,0.9-3.9c-0.4-1.4-1.3-2.5-2.1-3.7c-0.8-1.2-1.7-2.5-1.8-3.9v69.9H248.4z" fill="#F1F8FE"/></g><path d="M307.4,370.4c5.9-3.7,11.7-7.8,17.1-12.1c-148-43.8-236.2-38.5-278-30.3c14.4,17.5,31.7,32.4,51.1,44.2    C126.1,360.9,186.2,350.3,307.4,370.4z" fill="#C2DCFD"/><path d="M307.4,370.4c-121.1-20-181.2-9.5-209.7,1.8C127.8,390.5,163.2,401,201,401    C240.1,401,276.6,389.8,307.4,370.4z" fill="#EBF5FE"/></g><circle cx="99.2" cy="76" fill="#68D0F5" r="4.1"/><circle cx="49.3" cy="142.5" fill="#68D0F5" r="4.1"/><circle cx="128.7" cy="94.3" fill="#FFFFFF" r="4.1"/><circle cx="267" cy="81.5" fill="#68D0F5" r="4.1"/><circle cx="204" cy="32.3" fill="#FFFFFF" r="4.1"/><circle cx="164.9" cy="77.5" fill="#68D0F5" r="4.1"/><circle cx="149.5" cy="32.3" fill="#68D0F5" r="4.1"/><circle cx="97.6" cy="142.7" fill="#68D0F5" r="4.1"/><circle cx="200" cy="244.4" fill="#68D0F5" r="4.1"/><circle cx="139.1" cy="256.8" fill="#68D0F5" r="4.1"/><circle cx="46.5" cy="293.4" fill="#68D0F5" r="4.1"/><circle cx="181.5" cy="305.5" fill="#68D0F5" r="4.1"/><circle cx="324.5" cy="274.6" fill="#68D0F5" r="4.1"/><circle cx="341.3" cy="322.4" fill="#68D0F5" r="4.1"/><circle cx="376.3" cy="260.8" fill="#68D0F5" r="4.1"/><circle cx="189.6" cy="274.6" fill="#68D0F5" r="4.1"/><circle cx="353.5" cy="130.8" fill="#FFFFFF" r="4.1"/><circle cx="330.1" cy="85.6" fill="#68D0F5" r="4.1"/><circle cx="276.4" cy="36.4" fill="#68D0F5" r="4.1"/><circle cx="54.8" cy="94.3" fill="#68D0F5" r="4.1"/><circle cx="22" cy="184.2" fill="#68D0F5" r="4.1"/></g></svg>